<svg
        xmlns="http://www.w3.org/2000/svg"
        xmlns:xlink="http://www.w3.org/1999/xlink"
        width="64"
        height="64"
        version="1.1">
	<defs>
		<linearGradient id="lg">
			<stop style="stop-color:#9999ff;" offset="0" />
			<stop style="stop-color:#5555ff;" offset="1" />
		</linearGradient>
		<radialGradient xlink:href="#lg" id="rg" cx="32" cy="32" fx="32" fy="32" r="23" gradientTransform="matrix(1,0,0,1.34,0,-11.02)" gradientUnits="userSpaceOnUse" />
	</defs>
  <path
     d="m 31.99965,1.9725371 0.8457,0.007 0.84248,0.10672 0.83756,0.14928 0.83092,0.19147 0.81774,0.28882 0.8059,0.32926 0.79247,0.36888 0.77372,0.43474 0.75217,0.4988 0.72795,0.56076 0.70121,0.62042 0.6776,0.65175 0.64706,0.70694 0.61447,0.75928 0.58,0.80858 0.54388,0.85469 0.50628,0.8974599 0.46744,0.936789 0.41988,0.99488 0.37875,1.02585 0.33709,1.0531 0.28685,1.09707 0.23611,1.13535 0.18524,1.16786 0.13457,1.19459 0.0845,1.21559 0.0267,1.2479 -0.0299,1.27246 -0.0932,1.30488 -0.15413,1.32755 -0.22036,1.35466 -0.28256,1.37022 -0.35606,1.39934 -0.4229,1.41307 -0.5121,1.45479 -0.59642,1.48263 -0.69325,1.52122 -0.8071,1.57442 -0.93612,1.63738 -1.11117,1.74489 -1.34703,1.90711 -1.74084,2.22329 -2.75071,3.16208 1.13183,-1.06889 2.38081,-2.24109 1.74305,-1.46664 1.45212,-1.08687 1.2655,-0.83414 1.13224,-0.64899 1.03893,-0.51236 0.94311,-0.38423 0.87472,-0.28762 0.81283,-0.20311 0.74479,-0.12041 0.70288,-0.0624 0.63226,0.011 0.59438,0.0572 0.54042,0.11013 0.5032,0.14877 0.45087,0.19329 0.41792,0.22328 0.37065,0.25857 0.32064,0.29213 0.29287,0.31162 0.25146,0.33581 0.2212,0.35255 0.17739,0.37339 0.14537,0.38697 0.11279,0.3991 0.0798,0.4097 0.0466,0.41875 0.0262,0.42198 -0.0201,0.43229 -0.0275,0.42911 -0.0605,0.43272 -0.0932,0.43475 -0.0999,0.42929 -0.13183,0.42915 -0.15052,0.42504 -0.16878,0.42014 -0.18654,0.4145 -0.20378,0.40814 -0.20831,0.3996 -0.22465,0.39236 -0.24041,0.38447 -0.24379,0.37516 -0.24697,0.3659 -0.26139,0.35713 -0.25258,0.34742 -0.2663,0.33839 -0.26839,0.32906 -0.27028,0.31982 -0.272,0.31068 -0.26301,0.30237 -0.27503,0.29287 -0.26602,0.28509 -0.2573,0.27791 -0.26867,0.2685 -0.25993,0.26181 -0.2611,0.25395 -0.26211,0.24618 -0.26297,0.2385 -0.26369,0.23088 -0.26427,0.22337 -0.26471,0.21594 -0.26503,0.20859 -0.27371,0.19874 -0.2818,0.18863 -0.28108,0.18114 -0.29629,0.16793 -0.29467,0.16028 -0.30827,0.14659 -0.31323,0.13573 -0.32484,0.12157 -0.33525,0.1072 -0.34443,0.0927 -0.35907,0.0747 -0.36537,0.06 -0.37668,0.042 -0.38609,0.0241 -0.39942,0.003 -0.41017,-0.0178 -0.42366,-0.0414 -0.43387,-0.0642 -0.45043,-0.0926 -0.45774,-0.11616 -0.47395,-0.14755 -0.488,-0.17923 -0.50625,-0.21623 -0.52213,-0.25369 -0.54586,-0.30034 -0.57322,-0.3536 -0.61263,-0.42196 -0.67001,-0.51309 -0.77132,-0.65577 -1.00526,-0.94873 -0.47626,-0.45212 1.05914,1.21892 0.6355,0.81749 0.46511,0.67055 0.35924,0.5849 0.28671,0.53064 0.22544,0.48384 0.17893,0.45082 0.13825,0.42131 0.10367,0.39655 0.0717,0.37211 0.0434,0.34991 0.0167,0.32719 -0.002,0.31436 -0.0271,0.28913 -0.0438,0.27565 -0.0604,0.26025 -0.0793,0.23766 -0.0901,0.22942 -0.10561,0.20908 -0.11564,0.19865 -0.12771,0.18162 -0.13687,0.16948 -0.14559,0.15667 -0.15171,0.14935 -0.1616,0.12929 -0.16679,0.12101 -0.17169,0.11245 -0.17624,0.10362 -0.18046,0.0946 -0.18583,0.0788 -0.18771,0.0758 -0.19084,0.0661 -0.19242,0.0629 -0.19498,0.0531 -0.19716,0.0431 -0.19811,0.0396 -0.19901,0.0362 -0.20042,0.0261 -0.20097,0.0226 -0.20145,0.0191 -0.20211,0.009 -0.20211,0.012 -0.20241,0.002 -0.20241,-0.002 -0.20211,-0.012 -0.20211,-0.009 -0.20145,-0.0191 -0.20097,-0.0226 -0.20042,-0.0261 -0.19901,-0.0362 -0.19811,-0.0396 -0.19716,-0.0431 -0.19498,-0.0531 -0.19242,-0.0629 -0.19084,-0.0661 -0.18771,-0.0758 -0.18583,-0.0788 -0.18046,-0.0946 -0.17624,-0.10362 -0.17169,-0.11245 -0.16679,-0.12101 -0.1616,-0.12929 -0.15171,-0.14935 -0.14559,-0.15667 -0.13687,-0.16948 -0.12771,-0.18162 -0.11564,-0.19865 -0.10561,-0.20908 -0.0901,-0.22942 -0.0793,-0.23766 -0.0604,-0.26025 -0.0438,-0.27565 -0.0271,-0.28913 -0.002,-0.31436 0.0167,-0.32719 0.0434,-0.34991 0.0717,-0.37211 0.10367,-0.39655 0.13825,-0.42131 0.17893,-0.45082 0.22544,-0.48384 0.28671,-0.53064 0.35924,-0.5849 0.46511,-0.67055 0.6355,-0.81749 1.06109,-1.22101 -0.48007,0.45613 -1.00492,0.94833 -0.7698,0.65425 -0.67001,0.51309 -0.61263,0.42196 -0.57322,0.3536 -0.54586,0.30034 -0.52213,0.25369 -0.50625,0.21623 -0.488,0.17923 -0.47395,0.14755 -0.45774,0.11616 -0.45043,0.0926 -0.43387,0.0642 -0.42366,0.0414 -0.41017,0.0178 -0.39942,-0.003 -0.38609,-0.0241 -0.37668,-0.042 -0.36537,-0.06 -0.35907,-0.0747 -0.34443,-0.0927 -0.33525,-0.1072 -0.32484,-0.12157 -0.31323,-0.13573 -0.30827,-0.14659 -0.29467,-0.16028 -0.29629,-0.16793 -0.28108,-0.18114 -0.2818,-0.18863 -0.27371,-0.19874 -0.26503,-0.20859 -0.26471,-0.21594 -0.26427,-0.22337 -0.26369,-0.23088 -0.26297,-0.2385 -0.26211,-0.24618 -0.2611,-0.25395 -0.25993,-0.26181 -0.26867,-0.2685 -0.2573,-0.27791 -0.26602,-0.28509 -0.27503,-0.29287 -0.26301,-0.30237 -0.272,-0.31068 -0.27028,-0.31982 -0.26839,-0.32906 -0.2663,-0.33839 -0.25258,-0.34742 -0.26139,-0.35713 -0.24697,-0.3659 -0.24379,-0.37516 -0.24041,-0.38447 -0.22465,-0.39236 -0.20831,-0.3996 -0.20378,-0.40814 -0.18654,-0.4145 -0.16878,-0.42014 -0.15052,-0.42504 -0.13183,-0.42915 -0.0999,-0.42929 -0.0932,-0.43475 -0.0605,-0.43272 -0.0275,-0.42911 -0.0201,-0.43229 0.0262,-0.42198 0.0466,-0.41875 0.0798,-0.4097 0.1127901,-0.3991 0.14537,-0.38697 0.17739,-0.37339 0.2212,-0.35255 0.25146,-0.33581 0.29287,-0.31162 0.32064,-0.29213 0.37065,-0.25857 0.41792,-0.22328 0.45087,-0.19329 0.49225,-0.15562 0.55137,-0.10328 0.58409,-0.0641 0.64255,-0.004 0.69337,0.0555 0.7543,0.12732 0.80423,0.19639 0.87523,0.28778 0.9512,0.39079 1.032,0.50633 1.13917,0.65502 1.2655,0.83414 1.45212,1.08687 1.73937,1.46296 2.37991,2.24003 1.1413,1.07887 -2.75237,-3.16373 -1.73982,-2.22199 -1.35128,-1.912 -1.10549,-1.73788 -0.9418,-1.64439 -0.8071,-1.57442 -0.69325,-1.52122 -0.59642,-1.48263 -0.50436,-1.44331 -0.43064,-1.42455 -0.35606,-1.39934 -0.28256,-1.37022 -0.22036,-1.35466 -0.15413,-1.32755 -0.0932,-1.30488 -0.0298,-1.27246 0.0267,-1.2479 0.0845,-1.21559 0.13457,-1.19459 0.18524,-1.16786 0.23611,-1.13535 0.28685,-1.09707 0.33709,-1.0531 0.37875,-1.02585 0.41988,-0.99488 0.46744,-0.936789 0.50628,-0.8974599 0.54388,-0.85469 0.58,-0.80858 0.61447,-0.75928 0.64706,-0.70694 0.6776,-0.65175 0.70121,-0.62042 0.72795,-0.56076 0.75217,-0.4988 0.77372,-0.43474 0.79247,-0.36888 0.8059,-0.32926 0.81774,-0.28882 0.83092,-0.19147 0.83756,-0.14928 0.84248,-0.10672 0.8457,-0.007"
     style="fill:url(#rg);stroke:#000099;stroke-width:2.0;fill-opacity:0.8;stroke-opacity:0.8" />
</svg>
